# xmcd
#
# Track frame offsets:
#	150
#	12000
#	19950
#	31125
#	47400
#	63450
#	79950
#	95325
#	110325
#	127650
#	141675
#	153975
#	166050
#	180300
#	198825
#	218100
#
# Disc length: 3158 seconds
#
# Revision: 1
# Processed by: cddbd v1.4PL0 Copyright (c) Steve Scherf et al.
# Submitted via: CDmax 1.8
#
DISCID=c50c5410
DTITLE=Various Artist - Boogie Woogie Blues
DYEAR=1991
DGENRE=Blues
TTITLE0=Cow Cow Blues
TTITLE1=5th Street Blues
TTITLE2=Hurry And Bring It Home Blues
TTITLE3=Harlem Choc'late Babies
TTITLE4=Birmingham Blues
TTITLE5=Sugar Blues
TTITLE6=Papa De Da Da
TTITLE7=Gulf Coast Blues
TTITLE8=You're Always Messin' 'Round With My Man
TTITLE9=Low Down Papa
TTITLE10=Chicago Stomp
TTITLE11=Society Blues
TTITLE12=Boogie Woogie Blues
TTITLE13=Hard Luck Blues
TTITLE14=The Fives
TTITLE15=Down And Out
EXTD=
EXTT0=
EXTT1=
EXTT2=
EXTT3=
EXTT4=
EXTT5=
EXTT6=
EXTT7=
EXTT8=
EXTT9=
EXTT10=
EXTT11=
EXTT12=
EXTT13=
EXTT14=
EXTT15=
PLAYORDER=
